<svg width="240" height="35" viewBox="0 0 240 35" fill="none" xmlns="http://www.w3.org/2000/svg">
<path d="M230.688 34.6665C229.169 34.6665 227.536 34.4445 225.79 34.0007C224.044 33.5886 222.686 33.0655 221.716 32.4314V29.3404C222.945 30.0696 224.351 30.6561 225.936 31.0999C227.552 31.5438 229.104 31.7657 230.591 31.7657C232.596 31.7657 234.035 31.4962 234.908 30.9573C235.813 30.3866 236.266 29.5465 236.266 28.4369C236.266 27.581 236.072 26.9152 235.684 26.4397C235.296 25.9324 234.649 25.4886 233.744 25.1082C232.839 24.7277 231.432 24.2839 229.524 23.7767C227.649 23.2694 226.146 22.7463 225.014 22.2074C223.915 21.6367 223.074 20.9234 222.492 20.0675C221.91 19.2115 221.619 18.1178 221.619 16.7863C221.619 14.7256 222.46 13.1563 224.141 12.0784C225.855 10.9689 228.118 10.4141 230.931 10.4141C232.451 10.4141 233.873 10.5567 235.199 10.842C236.557 11.0957 237.688 11.4602 238.594 11.9358V15.0268C237.656 14.5195 236.524 14.1233 235.199 13.8379C233.873 13.5209 232.499 13.3624 231.076 13.3624C229.201 13.3624 227.778 13.6319 226.809 14.1708C225.839 14.7098 225.354 15.5816 225.354 16.7863C225.354 17.6105 225.515 18.2446 225.839 18.6884C226.194 19.1322 226.825 19.5444 227.73 19.9248C228.668 20.2735 230.155 20.7174 232.192 21.2563C235.102 22.0489 237.123 22.9841 238.254 24.062C239.418 25.1082 240 26.5665 240 28.4369C240 30.3708 239.224 31.8925 237.672 33.0021C236.153 34.1117 233.825 34.6665 230.688 34.6665Z" fill="#14B2BE"/>
<path d="M193.935 11.1274H197.572V14.5512C198.704 13.1246 200.078 12.0784 201.694 11.4127C203.343 10.7469 205.089 10.4141 206.932 10.4141C210.004 10.4141 212.283 11.2066 213.771 12.7917C215.29 14.3769 216.05 16.5009 216.05 19.1639V33.9532H212.316V19.4968C212.316 17.5313 211.831 16.0254 210.861 14.9792C209.891 13.9013 208.339 13.3624 206.205 13.3624C202.616 13.3624 199.771 14.9475 197.669 18.1178V33.9532H193.935V11.1274Z" fill="#14B2BE"/>
<path d="M174.849 34.6665C172.036 34.6665 169.805 33.9849 168.156 32.6217C166.54 31.2267 165.731 29.3246 165.731 26.9152C165.731 24.4107 166.524 22.4927 168.108 21.1612C169.692 19.798 171.988 19.1164 174.995 19.1164C178.357 19.1164 181.251 19.798 183.676 21.1612V19.4493C183.676 17.3886 183.078 15.8669 181.882 14.8841C180.685 13.8696 178.794 13.3624 176.207 13.3624C173.459 13.3624 170.921 13.8696 168.593 14.8841V11.7931C169.563 11.381 170.791 11.0481 172.279 10.7945C173.766 10.5409 175.189 10.4141 176.547 10.4141C180.233 10.4141 182.965 11.2383 184.743 12.8869C186.521 14.5037 187.41 16.7546 187.41 19.6395V33.9532H183.919V31.0048C181.882 33.4459 178.858 34.6665 174.849 34.6665ZM175.771 31.6706C177.517 31.6706 179.085 31.3377 180.475 30.6719C181.898 29.9745 182.965 29.0076 183.676 27.7712V24.1095C182.415 23.3804 181.154 22.8573 179.893 22.5403C178.664 22.1915 177.274 22.0172 175.722 22.0172C173.524 22.0172 171.923 22.4293 170.921 23.2536C169.951 24.0461 169.466 25.2667 169.466 26.9152C169.466 30.0855 171.567 31.6706 175.771 31.6706Z" fill="#14B2BE"/>
<path d="M152.304 34.6665C150.784 34.6665 149.151 34.4445 147.405 34.0007C145.659 33.5886 144.301 33.0655 143.331 32.4314V29.3404C144.56 30.0696 145.966 30.6561 147.551 31.0999C149.167 31.5438 150.719 31.7657 152.207 31.7657C154.211 31.7657 155.65 31.4962 156.523 30.9573C157.428 30.3866 157.881 29.5465 157.881 28.4369C157.881 27.581 157.687 26.9152 157.299 26.4397C156.911 25.9324 156.264 25.4886 155.359 25.1082C154.454 24.7277 153.047 24.2839 151.14 23.7767C149.264 23.2694 147.761 22.7463 146.629 22.2074C145.53 21.6367 144.689 20.9234 144.107 20.0675C143.525 19.2115 143.234 18.1178 143.234 16.7863C143.234 14.7256 144.075 13.1563 145.756 12.0784C147.47 10.9689 149.733 10.4141 152.546 10.4141C154.066 10.4141 155.488 10.5567 156.814 10.842C158.172 11.0957 159.304 11.4602 160.209 11.9358V15.0268C159.271 14.5195 158.14 14.1233 156.814 13.8379C155.488 13.5209 154.114 13.3624 152.692 13.3624C150.816 13.3624 149.394 13.6319 148.424 14.1708C147.454 14.7098 146.969 15.5816 146.969 16.7863C146.969 17.6105 147.13 18.2446 147.454 18.6884C147.809 19.1322 148.44 19.5444 149.345 19.9248C150.283 20.2735 151.77 20.7174 153.807 21.2563C156.717 22.0489 158.738 22.9841 159.869 24.062C161.033 25.1082 161.615 26.5665 161.615 28.4369C161.615 30.3708 160.839 31.8925 159.287 33.0021C157.768 34.1117 155.44 34.6665 152.304 34.6665Z" fill="#14B2BE"/>
<path d="M135.023 6.18185C134.377 6.18185 133.827 5.95994 133.374 5.5161C132.922 5.07227 132.695 4.53333 132.695 3.89928C132.695 3.26523 132.922 2.72629 133.374 2.28245C133.827 1.83862 134.377 1.6167 135.023 1.6167C135.67 1.6167 136.22 1.83862 136.672 2.28245C137.157 2.72629 137.4 3.26523 137.4 3.89928C137.4 4.53333 137.157 5.07227 136.672 5.5161C136.22 5.95994 135.67 6.18185 135.023 6.18185ZM133.18 11.1274H136.915V33.9532H133.18V11.1274Z" fill="#14B2BE"/>
<path d="M123.615 34.6666C121.416 34.6666 119.702 34.0326 118.474 32.7645C117.278 31.4964 116.679 29.6893 116.679 27.3433V13.9807H113.042V11.1275H116.679V4.27979H120.414V11.1275H126.282V13.9807H120.414V27.4384C120.414 29.0236 120.737 30.149 121.384 30.8148C122.03 31.4488 123.211 31.7658 124.924 31.7658C125.765 31.7658 126.654 31.5756 127.592 31.1952V34.1911C126.525 34.5081 125.199 34.6666 123.615 34.6666Z" fill="#14B2BE"/>
<path d="M95.9902 11.1274H99.6277V15.5975C101.503 12.6175 105.011 11.1274 110.152 11.1274V14.0758C104.526 14.0758 101.05 15.8987 99.7247 19.5444V33.9532H95.9902V11.1274Z" fill="#14B2BE"/>
<path d="M73.0771 0.713379H76.6175L90.1487 33.9534H86.2688L82.6314 25.0609H67.0147L63.4258 33.9534H59.5459L73.0771 0.713379ZM81.5644 21.9223L74.823 4.99321L68.1302 21.9223H81.5644Z" fill="#14B2BE"/>
<path d="M43.94 34.6667C40.1894 34.6667 36.9076 33.9692 34.0947 32.5743C31.2818 31.1794 29.1155 29.1821 27.5959 26.5825C26.0762 23.9829 25.3164 20.9078 25.3164 17.3571C25.3164 13.8064 26.0762 10.7313 27.5959 8.13168C29.1155 5.50038 31.2818 3.48727 34.0947 2.09236C36.9076 0.697454 40.1894 0 43.94 0C46.3649 0 48.5312 0.221917 50.4388 0.665752C52.3464 1.10959 54.1247 1.82289 55.7737 2.80567V11.8884C54.3511 10.8105 52.7506 10.0338 50.9723 9.5583C49.194 9.08276 47.1409 8.84499 44.813 8.84499C41.7737 8.84499 39.4619 9.5583 37.8776 10.9849C36.3256 12.4115 35.5497 14.5356 35.5497 17.3571C35.5497 20.1786 36.358 22.3185 37.9746 23.7769C39.5912 25.2035 41.8707 25.9168 44.813 25.9168C47.1086 25.9168 49.1617 25.6632 50.9723 25.1559C52.8153 24.6487 54.5451 23.8403 56.1617 22.7307V31.7659C53.0254 33.6997 48.9515 34.6667 43.94 34.6667Z" fill="url(#paint0_linear_150_2263)"/>
<path d="M0 0.713379H24.5889V8.98773H10.0393V13.5529H20.515V21.1139H10.0393V25.6791H24.5889V33.9534H0V0.713379Z" fill="url(#paint1_linear_150_2263)"/>
<defs>
<linearGradient id="paint0_linear_150_2263" x1="40.739" y1="0" x2="40.739" y2="34.6667" gradientUnits="userSpaceOnUse">
<stop offset="0.095" stop-color="#FDE48E"/>
<stop offset="1" stop-color="#14B2BE"/>
</linearGradient>
<linearGradient id="paint1_linear_150_2263" x1="12.2945" y1="0.713379" x2="12.2945" y2="33.9534" gradientUnits="userSpaceOnUse">
<stop offset="0.095" stop-color="#FDE48E"/>
<stop offset="1" stop-color="#14B2BE"/>
</linearGradient>
</defs>
</svg>
