<svg width="512" height="512" viewBox="0 0 512 512" fill="none" xmlns="http://www.w3.org/2000/svg">
<g clip-path="url(#clip0_4_28)">
<rect width="512" height="512" fill="#F7F7F7"/>
<path d="M415.5 542.5C415.5 542.5 417.4 405.9 399 383.5C351 320.306 134.5 334 114 383.5C93.5 433 102 541.5 93.5 553L147 542.5L399 553L415.5 542.5Z" fill="#14B2BE"/>
<path d="M399 384.2C376.9 345.8 335.4 320 288 320H224C176.6 320 135.1 345.8 113 384.2C148.2 423.4 199.2 448 256 448C312.8 448 363.8 423.3 399 384.2ZM256 272C275.096 272 293.409 264.414 306.912 250.912C320.414 237.409 328 219.096 328 200C328 180.904 320.414 162.591 306.912 149.088C293.409 135.586 275.096 128 256 128C236.904 128 218.591 135.586 205.088 149.088C191.586 162.591 184 180.904 184 200C184 219.096 191.586 237.409 205.088 250.912C218.591 264.414 236.904 272 256 272Z" fill="#14B2BE"/>
</g>
<defs>
<clipPath id="clip0_4_28">
<rect width="512" height="512" fill="white"/>
</clipPath>
</defs>
</svg>
