<svg width="636" height="636" viewBox="0 0 636 636" fill="none" xmlns="http://www.w3.org/2000/svg">
<path d="M9 422.755L243.962 557.422L602 349.022L367.437 213.422L9 422.755Z" fill="#E3F6F8"/>
<path d="M156.643 381.515L80.3517 427.183C77.2894 429.047 76.2242 433.041 78.0882 436.104C78.6208 437.036 79.4197 437.834 80.3517 438.367L217.223 517.987C222.682 521.182 229.472 520.916 234.798 517.321L301.503 471.387C305.63 468.591 306.829 462.865 303.899 458.738C303.101 457.54 302.035 456.608 300.837 455.942L170.357 381.248C166.096 378.852 160.903 378.985 156.643 381.515Z" fill="#FDE48E"/>
<path d="M91.1367 420.792L244.784 509.998L264.889 496.285L111.375 408.676L91.1367 420.792Z" fill="#124577"/>
<path d="M270.613 472.319C278.408 472.319 284.726 468.682 284.726 464.197C284.726 459.711 278.408 456.075 270.613 456.075C262.819 456.075 256.5 459.711 256.5 464.197C256.5 468.682 262.819 472.319 270.613 472.319Z" fill="#124577"/>
<path d="M259.163 465.528C266.957 465.528 273.276 461.892 273.276 457.406C273.276 452.921 266.957 449.285 259.163 449.285C251.368 449.285 245.05 452.921 245.05 457.406C245.05 461.892 251.368 465.528 259.163 465.528Z" fill="#FF5959"/>
<path d="M453.287 353.688V309.351L492.964 287.116V331.054L453.287 353.688Z" fill="#F7931E"/>
<path d="M453.287 309.351L414.676 287.116C414.676 287.116 413.61 331.852 414.676 332.518C415.741 333.184 453.287 353.688 453.287 353.688V309.351Z" fill="#FFB72F"/>
<path d="M414.676 287.249L453.287 263.55L492.964 287.249L453.287 309.351L414.676 287.249Z" fill="#FFB72F"/>
<path d="M429.454 278.195L469.663 300.297V323.464L481.114 317.606V293.773L441.038 271.139L429.454 278.195Z" fill="#FFE8D2"/>
<path d="M496.559 377.787V333.45L536.235 311.348V355.285L496.559 377.787Z" fill="#F7931E"/>
<path d="M496.559 333.583L457.947 311.481C457.947 311.481 456.882 356.218 457.947 356.883C459.012 357.549 496.559 377.92 496.559 377.92V333.583Z" fill="#FFB72F"/>
<path d="M457.947 311.348L496.559 287.782L536.236 311.348L496.559 333.583L457.947 311.348Z" fill="#FFB72F"/>
<path d="M472.593 302.428L512.802 324.396V347.563L524.386 341.705V318.005L484.176 295.371L472.593 302.428Z" fill="#FFE8D2"/>
<path d="M478.318 324.663V280.326L517.995 258.224V302.161L478.318 324.663Z" fill="#F7931E"/>
<path d="M478.318 280.326L439.707 258.224C439.707 258.224 438.642 302.96 439.707 303.626C440.772 304.292 478.318 324.663 478.318 324.663V280.326Z" fill="#FFB72F"/>
<path d="M439.84 258.224L478.318 234.524L518.128 258.224L478.318 280.326L439.84 258.224Z" fill="#FFB72F"/>
<path d="M454.485 249.17L494.695 271.272V294.306L506.278 288.581V264.748L466.069 242.114L454.485 249.17Z" fill="#FFE8D2"/>
<path d="M305.63 68.0951C283.528 81.2763 228.673 113.63 212.297 123.083C209.501 124.681 207.77 127.743 207.77 131.072V356.217C207.37 360.877 212.563 365.005 216.824 362.608L308.959 310.15C312.687 308.419 314.95 304.691 315.083 300.697V73.4208C315.083 69.9591 312.287 67.1631 308.826 67.1631C307.76 67.2962 306.562 67.5625 305.63 68.0951Z" fill="#14B2BE"/>
<path d="M314.418 70.7582L285.126 87.6674V93.9251C285.126 94.9903 284.594 96.0554 283.662 96.588L261.16 109.503C260.361 110.169 259.163 109.902 258.497 109.103C258.231 108.704 258.098 108.305 258.231 107.905V103.245L216.025 127.877C215.226 128.409 214.693 129.208 214.693 130.14V355.152C214.693 356.218 215.625 357.016 216.69 356.883C216.957 356.883 217.223 356.75 217.356 356.75L314.95 300.164C315.217 303.759 313.619 307.221 310.69 309.085C305.63 312.28 216.69 362.608 216.69 362.608C216.69 362.608 209.634 365.804 207.637 357.416V131.072C207.637 128.143 208.968 125.214 211.365 123.483C215.492 120.554 305.497 67.829 305.497 67.829C308.559 66.0982 312.421 67.1633 314.151 70.2256C314.418 70.4919 314.418 70.625 314.418 70.7582Z" fill="#124577"/>
<path d="M216.024 127.877C216.024 127.877 237.993 137.064 237.594 177.539L210.965 163.826V127.877H216.024Z" fill="#FF5959"/>
<path d="M254.636 147.715C251.973 137.996 217.622 122.418 217.622 122.418L210.832 126.146V138.795C218.288 142.523 227.209 148.248 231.736 154.905C240.257 167.687 235.73 176.341 235.73 176.341C235.863 177.007 244.118 180.868 251.041 176.341C257.965 171.814 257.432 157.435 254.636 147.715Z" fill="#FF5959"/>
<path d="M329.729 124.015C329.729 124.015 334.256 115.361 325.735 102.712C317.214 90.0638 292.449 81.01 292.449 81.01L311.755 70.0923C311.755 70.0923 345.973 85.6701 348.769 95.3895C351.565 105.109 352.097 119.622 345.174 124.148C338.251 128.675 329.729 124.015 329.729 124.015Z" fill="#FFE8D2"/>
<path d="M310.157 134.667C310.157 134.667 314.684 126.013 306.163 113.364C297.642 100.716 272.877 91.6619 272.877 91.6619L292.183 80.7441C292.183 80.7441 326.401 96.3219 329.197 106.041C331.993 115.761 332.658 130.407 325.602 134.8C318.545 139.194 310.157 134.667 310.157 134.667Z" fill="#FF5959"/>
<path d="M291.384 145.451C291.384 145.451 295.911 136.797 287.389 124.148C278.868 111.5 254.104 102.446 254.104 102.446L273.276 91.5283C273.276 91.5283 307.494 107.106 310.29 116.826C313.086 126.545 313.752 141.191 306.695 145.585C299.639 149.978 291.384 145.451 291.384 145.451Z" fill="#FFE8D2"/>
<path d="M272.877 155.704C272.877 155.704 277.404 147.05 268.883 134.401C260.361 121.752 235.597 112.699 235.597 112.699L254.902 101.781C254.902 101.781 289.12 117.359 291.916 127.078C294.712 136.797 295.378 151.443 288.321 155.837C281.265 160.231 272.877 155.704 272.877 155.704Z" fill="#FF5959"/>
<path d="M255.968 167.687C255.968 167.687 258.498 157.834 249.843 145.052C241.189 132.27 216.558 123.35 216.558 123.35L235.863 112.432C235.863 112.432 270.081 128.01 272.877 137.729C275.673 147.449 276.339 161.961 269.416 166.488C265.288 169.018 260.362 169.551 255.968 167.687Z" fill="#FFE8D2"/>
<path d="M238.393 193.65V241.847C238.393 245.309 241.189 248.105 244.65 248.238C245.849 248.238 246.914 247.972 247.979 247.306L293.647 220.944C296.576 219.213 298.307 216.151 298.307 212.822V164.092C298.307 160.63 295.511 157.834 292.049 157.834C290.851 157.834 289.786 158.1 288.854 158.766L243.053 185.927C240.123 187.525 238.393 190.454 238.393 193.65Z" fill="white"/>
<path d="M238.393 265.281V313.479C238.393 316.94 241.189 319.736 244.65 319.736C245.849 319.736 246.914 319.47 247.846 318.804L293.514 292.442C296.443 290.711 298.174 287.649 298.174 284.32V235.59C298.174 232.128 295.378 229.332 291.916 229.332C290.718 229.332 289.653 229.598 288.721 230.264L242.919 257.425C240.123 259.023 238.393 261.952 238.393 265.281Z" fill="white"/>
<path d="M261.427 187.392L278.07 178.604L284.461 217.349L274.608 222.542L271.546 198.709L272.478 223.873L260.495 230.53L261.427 187.392Z" fill="#124577"/>
<path d="M261.427 259.023L278.07 250.235L284.461 288.98L274.608 294.173L271.546 270.34L272.478 295.504L260.495 302.161L261.427 259.023Z" fill="#FDE48E"/>
<path d="M252.265 234.772C253.104 231.876 252.295 229.098 250.459 228.566C248.623 228.034 246.454 229.95 245.615 232.846C244.777 235.742 245.585 238.521 247.422 239.052C249.258 239.584 251.427 237.668 252.265 234.772Z" fill="#124577"/>
<path d="M250.803 306.215C251.642 303.319 250.833 300.54 248.997 300.008C247.161 299.476 244.992 301.393 244.153 304.288C243.315 307.184 244.123 309.963 245.96 310.495C247.796 311.027 249.965 309.11 250.803 306.215Z" fill="#FDE48E"/>
<path d="M333.458 397.359C333.458 397.625 327.2 411.871 325.868 412.67C324.537 413.469 320.143 410.806 318.679 412.404C317.214 414.002 315.35 417.33 318.546 418.662C321.741 419.993 331.594 421.324 333.324 420.526C335.055 419.594 336.653 418.528 338.118 417.33C338.118 417.33 339.05 409.741 339.982 410.806C340.914 411.871 340.647 420.126 341.313 420.259C342.245 420.259 343.31 420.126 344.109 419.86L343.177 395.894" fill="#FF5959"/>
<path d="M360.486 384.577C360.486 384.843 353.829 398.823 352.364 399.755C350.9 400.687 346.639 397.625 345.175 399.223C343.71 400.82 341.58 404.016 344.908 405.481C348.237 406.945 357.823 408.676 359.554 408.01C361.285 407.211 362.883 406.146 364.481 404.948C364.481 404.948 365.679 397.359 366.611 398.424C367.543 399.489 366.877 407.744 367.676 407.877C368.608 408.01 369.54 407.877 370.472 407.611V383.645" fill="#FF5959"/>
<path d="M336.654 266.878C336.654 266.878 316.815 368.467 318.413 392.033C318.413 392.033 322.407 407.744 356.492 402.551C356.492 402.551 359.421 390.702 358.09 370.73C356.758 350.759 353.163 266.745 353.163 266.745L336.654 266.878Z" fill="#FDE48E"/>
<path d="M340.248 386.974L345.441 265.68L365.945 263.816C365.945 263.816 374.865 295.105 372.868 310.15C370.871 325.195 375.132 345.167 376.197 355.685C377.129 365.138 377.395 381.382 374.2 388.704C363.016 391.634 351.166 390.968 340.248 386.974Z" fill="#FDE48E"/>
<path d="M357.956 396.826C359.554 389.237 360.619 381.515 361.418 373.792C361.684 370.064 361.684 366.203 361.418 362.475C361.018 358.614 360.486 354.753 359.82 350.892C358.622 343.968 358.356 337.045 358.888 329.988C359.421 322.799 360.486 315.742 361.152 308.552C362.217 300.564 361.95 292.442 360.353 284.453C360.086 283.388 361.684 282.989 361.95 284.054C365.146 298.3 362.084 312.68 360.752 327.059C359.953 334.382 360.086 341.838 361.152 349.161C361.684 352.756 362.483 356.351 362.882 359.946C363.282 363.807 363.415 367.668 363.149 371.662C362.483 380.317 361.285 388.838 359.554 397.359C359.421 398.291 357.823 397.891 357.956 396.826Z" fill="white"/>
<path d="M360.22 222.941C358.089 222.675 317.88 195.247 316.682 196.312C315.484 197.378 310.424 211.091 316.282 216.284C322.141 221.477 357.823 242.513 357.823 242.513" fill="#FF5959"/>
<path d="M366.877 228.799L350.234 213.887C348.37 214.553 336.52 213.355 333.858 221.21C332.127 226.27 331.461 232.66 330.662 236.255C330.662 236.388 333.325 237.454 333.325 237.72C334.257 245.575 334.124 253.564 332.926 261.286C334.39 261.02 335.855 260.487 337.186 259.822C337.186 259.822 336.254 266.745 337.186 268.875C338.118 271.006 360.22 273.535 365.413 267.011C370.605 260.487 366.877 228.799 366.877 228.799Z" fill="#FF5959"/>
<path d="M299.773 191.785V191.652C299.506 190.986 299.373 190.454 299.24 189.788C299.107 189.255 298.574 188.989 298.042 189.122C297.909 189.122 297.775 189.255 297.642 189.389C297.509 189.522 297.376 189.655 297.243 189.788C297.11 190.187 296.977 190.72 296.977 191.253C296.977 191.519 296.977 191.918 296.977 192.185C297.376 193.782 298.441 195.247 299.906 196.046C299.373 196.312 298.974 196.711 298.441 197.111C296.977 199.374 297.909 201.904 299.373 204.301C299.506 204.301 299.773 204.301 299.906 204.301C301.637 204.966 303.501 205.366 305.365 205.765C306.829 206.165 308.294 206.298 309.758 206.431C311.223 206.564 312.687 206.964 314.152 207.629C314.285 205.1 314.551 202.57 314.951 200.04C309.625 197.777 304.566 194.981 299.773 191.785Z" fill="#F7931E"/>
<path d="M299.906 198.842C300.305 198.309 299.373 197.777 299.107 198.309C298.841 198.709 298.574 199.241 298.308 199.774C298.042 200.44 297.775 201.239 297.775 201.904C297.775 202.037 297.775 202.304 297.775 202.437C297.775 202.57 297.775 202.57 297.775 202.703C297.775 203.103 298.042 203.369 298.308 203.502C298.841 203.768 299.373 203.236 299.639 202.703C299.906 202.037 300.039 201.372 300.039 200.573C300.172 200.04 300.039 199.375 299.639 198.975L299.906 198.842Z" fill="#F7931E"/>
<path d="M313.353 206.831C312.022 206.032 310.424 205.499 308.826 205.499C306.696 205.499 304.433 206.032 303.101 203.902C302.169 202.57 302.302 201.105 301.237 200.04C300.971 199.774 300.704 199.641 300.438 199.375L299.772 198.975C299.373 198.842 299.107 198.576 298.974 198.176C298.84 197.644 299.107 197.111 299.639 196.845C299.639 196.845 299.639 196.845 299.772 196.845C299.906 196.845 300.039 196.845 300.039 196.845C300.438 196.845 300.838 197.111 301.237 197.244C301.903 197.511 302.569 197.777 303.367 198.043C303.634 198.176 303.9 198.176 304.033 197.91C304.166 197.644 304.166 197.377 303.9 197.244C302.569 196.579 299.506 194.848 298.175 196.445C297.775 196.845 297.642 197.511 297.775 198.043C297.509 198.975 297.243 199.907 297.11 200.839C296.976 201.505 296.976 202.171 297.11 202.836C297.509 203.635 298.308 204.035 299.24 203.902C299.24 204.168 299.373 204.301 299.506 204.567C300.172 205.499 301.503 205.899 302.569 205.233C302.702 205.233 302.835 204.967 302.835 204.834C303.367 205.366 303.9 205.765 304.566 206.032C305.764 206.431 306.962 206.431 308.027 206.298C309.758 206.165 311.489 206.564 312.954 207.363C313.22 207.363 313.486 207.23 313.486 206.964L313.353 206.831ZM298.974 203.236C298.441 203.502 297.908 202.437 297.775 202.171C297.775 201.638 297.775 201.105 297.908 200.706C297.908 200.173 298.042 199.641 298.308 199.241C298.707 199.508 299.107 199.907 299.506 200.173C299.24 201.105 299.107 202.171 298.974 203.236ZM301.77 204.7C300.438 205.233 299.906 204.168 300.039 202.969C300.039 202.304 300.172 201.505 300.305 200.839L300.571 201.105C301.37 202.171 301.37 203.502 302.169 204.567C302.036 204.567 302.036 204.567 301.77 204.7Z" fill="#42210B"/>
<path d="M338.384 188.989C337.186 189.788 337.186 209.76 342.911 212.156C350.367 215.352 356.225 206.564 356.891 201.904C357.557 197.244 353.03 179.803 338.384 188.989Z" fill="#F7931E"/>
<path d="M377.395 221.077C376.33 220.411 375.398 219.479 374.732 218.414C374.333 217.083 374.199 215.751 374.199 214.287C374.066 210.958 373.134 207.363 370.072 205.499C368.208 204.301 365.279 205.366 363.681 203.635C362.083 201.904 362.483 198.576 362.216 196.046C360.885 182.998 341.712 180.601 335.588 191.253C333.458 194.715 334.523 199.241 337.851 201.505C338.783 202.171 339.848 202.57 340.914 202.703C342.511 202.969 344.109 202.969 344.775 204.567C345.84 207.097 343.976 209.76 343.044 212.156C341.579 215.751 341.18 220.811 344.642 223.34C346.372 224.405 348.37 225.071 350.367 225.471C351.166 225.604 351.964 226.136 352.497 226.669C353.429 227.867 352.896 229.465 352.63 230.796C352.497 231.462 352.497 232.261 352.63 232.927C352.364 234.258 352.763 235.59 353.695 236.655C355.826 239.184 359.687 239.318 362.616 239.184C366.078 239.051 369.539 238.119 372.735 236.655C375.531 235.323 378.993 233.459 380.457 230.53C382.055 227.068 380.191 223.473 377.395 221.077Z" fill="#42210B"/>
<path d="M352.631 326.127L315.084 305.224L298.841 310.15L324.804 329.988L340.781 336.912L352.631 326.127Z" fill="#124577"/>
<path d="M339.183 333.849L298.841 310.15L295.778 348.229L337.053 372.195L339.183 333.849Z" fill="#14B2BE"/>
<path d="M339.183 333.849L352.631 326.127L353.829 362.209L337.053 372.195" fill="#14B2BE"/>
<path d="M310.691 317.073C310.691 317.073 312.421 303.359 322.407 305.623C332.393 307.886 329.73 328.39 329.73 328.39L332.393 329.855C332.393 329.855 336.653 311.348 326.535 305.223C316.416 299.099 309.226 308.951 308.294 315.742" fill="white"/>
<path d="M341.047 319.736C340.381 313.878 336.12 309.218 330.528 307.886L330.795 310.949C330.795 310.949 335.588 311.348 338.517 318.271L341.047 319.736Z" fill="white"/>
<path d="M334.39 287.515C332.793 287.515 335.189 268.209 331.861 282.323C330.929 285.119 328.399 287.249 325.337 287.515C325.07 287.915 323.739 290.444 322.407 292.974C321.076 297.767 319.611 302.427 318.413 307.22C318.679 307.62 318.679 308.152 318.679 308.552C318.679 309.484 318.813 310.283 318.946 311.082C319.345 312.813 320.277 314.41 322.274 313.611C322.541 313.478 322.807 313.345 323.073 313.212C323.606 314.41 324.937 314.943 326.135 314.41C326.135 314.41 326.269 314.41 326.269 314.277C326.934 314.011 327.467 313.345 327.6 312.679C328.266 313.212 329.065 313.212 329.73 312.679C330.263 312.28 330.529 311.614 330.662 310.949C331.062 310.949 331.328 310.948 331.727 310.815C333.192 310.15 333.591 308.019 333.725 306.555C334.39 300.297 334.523 293.906 334.39 287.515Z" fill="#F7931E"/>
<path d="M320.81 292.309C319.611 294.572 318.546 296.836 317.747 299.232C317.215 301.362 318.147 301.629 320.011 302.428C321.076 302.827 321.475 301.362 320.676 300.697C321.076 300.564 321.475 300.297 321.475 299.898C321.475 298.833 321.742 297.634 322.141 296.702C322.141 296.569 322.274 296.436 322.274 296.303C322.407 296.037 322.274 295.77 322.141 295.637L322.407 295.238C322.674 294.838 322.54 294.306 322.141 294.04C322.274 293.64 322.54 293.374 322.674 292.974C323.073 291.643 321.209 291.11 320.81 292.309Z" fill="#F7931E"/>
<path d="M337.719 296.969C340.515 285.785 345.441 241.981 345.441 241.981L330.529 236.255C330.529 236.255 317.88 290.445 318.413 294.306C322.141 296.836 333.325 298.167 337.719 296.969Z" fill="#FF5959"/>
<path d="M194.049 385.05L253.431 351.764L279.261 359.62L238.119 391.041L212.822 402.092L194.049 385.05Z" fill="#124577"/>
<path d="M215.219 397.166L279.261 359.62L284.054 419.8L218.547 458.013L215.219 397.166Z" fill="#14B2BE"/>
<path d="M215.218 397.166L194.049 385.05L192.185 442.301L218.547 458.012" fill="#14B2BE"/>
<path opacity="0.51" d="M215.218 397.166L194.049 385.05L192.185 442.301L218.547 458.012" fill="#124577"/>
<path d="M260.488 370.67C260.488 370.67 257.692 349.101 241.848 352.563C226.003 356.025 230.264 388.645 230.264 388.645L226.137 390.908C226.137 390.908 219.346 361.484 235.323 352.03C251.301 342.577 262.618 357.889 264.216 368.673" fill="white"/>
<path d="M210.559 375.73C210.559 375.73 204.967 352.164 223.873 345.773C242.779 339.382 244.91 356.557 244.91 356.557L239.584 359.487C239.584 359.487 239.584 346.172 225.87 348.702C212.156 351.232 215.219 373.067 215.219 373.067" fill="white"/>
</svg>
