<svg width="636" height="636" viewBox="0 0 636 636" fill="none" xmlns="http://www.w3.org/2000/svg">
<path d="M9 422.755L243.962 557.422L602 349.022L367.437 213.422L9 422.755Z" fill="#E3F6F8"/>
<path d="M561.035 326.592L556.823 329.027C556.823 325.13 556.823 321.233 556.823 317.336C556.823 316.362 556.175 315.55 555.041 314.9L400.508 225.429C398.241 224.13 394.353 224.13 392.085 225.429L223.784 323.507C222.65 324.156 222.164 325.13 222.164 325.942C222.164 331.138 222.164 336.335 222.164 341.531C222.164 342.343 222.65 343.317 223.946 343.966L274.971 373.519C274.485 374.169 274.323 374.818 274.323 375.468V382.775L206.289 343.479C201.43 340.556 199 336.984 199 333.412C199 338.608 199 343.804 199 349C199 352.572 201.43 356.145 206.127 358.905L352.723 443.83C362.118 449.188 371.351 452.761 380.584 447.24L560.873 342.18C565.408 339.42 567.838 336.01 567.838 332.437C567.838 327.241 567.838 322.045 567.838 316.849C567.838 320.421 565.57 323.994 561.035 326.592Z" fill="#CFD4DF"/>
<path d="M303.803 379.528C307.528 381.639 307.528 385.048 303.803 387.159C300.077 389.27 294.084 389.27 290.52 387.159L276.913 379.365C273.188 377.254 273.188 373.844 276.913 371.571C280.639 369.46 286.47 369.46 290.196 371.571L303.803 379.528Z" fill="#CFD4DF"/>
<path d="M223.945 328.378L229.777 331.788L230.101 331.95L232.207 333.087L236.094 335.36L237.39 336.172L255.856 346.889L279.02 360.367L311.255 379.04L316.762 382.288L321.46 385.049L325.833 387.647L353.371 403.56L360.66 407.782L365.358 410.542H365.52L367.301 411.679L378.478 418.174C380.746 419.473 384.634 419.473 386.901 418.174L400.994 410.055L411.523 403.885L421.89 397.877L423.186 397.065L429.017 393.655L444.568 384.561L457.041 377.417L463.682 373.52L467.246 371.409L477.775 365.238L492.353 356.795L493.973 355.82L497.537 353.872L504.502 349.812L513.087 344.941L515.193 343.642L519.729 341.044L523.292 338.933L527.18 336.659L528.8 335.685L541.596 328.216L548.562 324.156L549.21 323.832L549.858 323.507H550.02L555.527 320.422C557.795 319.123 557.795 316.849 555.527 315.55L519.081 294.441L518.433 293.954L517.623 293.467L493.811 279.34L487.98 275.93L459.794 259.692L457.365 258.393L438.088 247.351L435.173 245.565L402.614 226.566L401.48 225.917L400.508 225.43C400.184 225.267 399.86 225.105 399.536 224.942C398.564 224.618 397.268 224.293 396.135 224.455C394.677 224.455 393.219 224.78 392.085 225.43L374.753 235.497L364.224 241.668L357.906 245.402L352.237 248.812L344.462 253.359L343.004 254.171L323.08 265.862L320.65 267.161L299.106 279.664L297.324 280.801L293.923 282.75L290.197 284.86L289.549 285.185L287.767 286.322L283.718 288.595L262.012 301.261L253.75 305.97L236.904 315.875L229.777 319.934L227.995 320.909L223.945 323.344C221.516 324.806 221.516 327.079 223.945 328.378Z" fill="#E3F6F8"/>
<path d="M560.873 306.944L414.277 222.019C404.882 216.661 389.655 216.661 380.422 222.019L205.965 323.669C196.732 329.027 196.732 337.958 206.127 343.317L352.723 428.241C362.118 433.6 371.351 437.172 380.584 431.651L560.873 326.592C570.268 321.233 570.268 312.302 560.873 306.944ZM303.804 387.159C300.078 389.27 294.085 389.27 290.521 387.159L276.914 379.365C273.189 377.254 273.189 373.844 276.914 371.571C280.64 369.46 286.471 369.46 290.197 371.571L303.804 379.365C307.529 381.638 307.529 385.048 303.804 387.159ZM555.203 319.772L386.902 417.849C384.634 419.148 380.746 419.148 378.478 417.849L223.945 328.378C221.678 327.079 221.678 324.806 223.945 323.507L392.247 225.429C394.515 224.13 398.402 224.13 400.67 225.429L555.203 314.9C557.471 316.199 557.471 318.473 555.203 319.772Z" fill="white"/>
<path d="M511.061 313.381V287.222L534.47 274.103V300.026L511.061 313.381Z" fill="#F7931E"/>
<path d="M511.06 287.222L488.279 274.103C488.279 274.103 487.651 300.498 488.279 300.89C488.908 301.283 511.06 313.381 511.06 313.381V287.222Z" fill="#FFB72F"/>
<path d="M488.279 274.183L511.06 260.2L534.47 274.183L511.06 287.223L488.279 274.183Z" fill="#FFB72F"/>
<path d="M496.998 268.841L520.722 281.881V295.549L527.477 292.093V278.032L503.832 264.677L496.998 268.841Z" fill="#FFE8D2"/>
<path d="M536.592 327.6V301.441L560.001 288.401V314.324L536.592 327.6Z" fill="#F7931E"/>
<path d="M536.592 301.519L513.811 288.479C513.811 288.479 513.182 314.873 513.811 315.266C514.439 315.659 536.592 327.677 536.592 327.677V301.519Z" fill="#FFB72F"/>
<path d="M513.811 288.4L536.591 274.496L560.001 288.4L536.591 301.519L513.811 288.4Z" fill="#FFB72F"/>
<path d="M522.451 283.137L546.175 296.099V309.767L553.009 306.311V292.328L529.285 278.974L522.451 283.137Z" fill="#FFE8D2"/>
<path d="M525.828 296.257V270.098L549.238 257.058V282.981L525.828 296.257Z" fill="#F7931E"/>
<path d="M525.828 270.098L503.047 257.058C503.047 257.058 502.418 283.452 503.047 283.845C503.675 284.238 525.828 296.257 525.828 296.257V270.098Z" fill="#FFB72F"/>
<path d="M503.125 257.057L525.827 243.075L549.315 257.057L525.827 270.098L503.125 257.057Z" fill="#FFB72F"/>
<path d="M511.768 251.716L535.491 264.756V278.346L542.325 274.968V260.907L518.602 247.552L511.768 251.716Z" fill="#FFE8D2"/>
<path d="M273.189 334.224L273.351 342.18L360.013 392.68V384.886L273.189 334.224Z" fill="#124577"/>
<path d="M360.014 384.886V392.68L504.018 309.217V301.423L360.014 384.886Z" fill="#124577"/>
<path d="M273.189 334.223L360.013 384.886L504.017 301.423L417.355 250.923L273.189 334.223Z" fill="#124577"/>
<path d="M286.471 238.257L286.795 335.198L360.012 377.741L359.688 280.963L286.471 238.257Z" fill="#FFB72F"/>
<path d="M359.688 280.963L360.011 377.741L490.409 302.235L490.085 205.294L359.688 280.963Z" fill="#FDE48E"/>
<path d="M286.471 238.257L359.688 280.963L490.085 205.294L416.868 162.751L286.471 238.257Z" fill="#FD9B13"/>
<path d="M273.189 230.301L273.351 246.863L360.013 297.363V280.963L273.189 230.301Z" fill="#C2C2C2"/>
<path d="M360.014 280.963V297.363L504.018 214.063V197.5L360.014 280.963Z" fill="#E8E9EB"/>
<path d="M273.189 230.301L360.013 280.963L504.017 197.5L417.355 147L273.189 230.301Z" fill="#FAFBFD"/>
<path d="M332.799 352.085L338.144 349V347.376L332.799 350.624V352.085Z" fill="#C2C2C2"/>
<path d="M332.8 350.624L338.145 347.376L298.621 325.13L293.275 328.216L332.8 350.624Z" fill="#FAFBFD"/>
<path d="M293.275 328.216V329.84L332.8 352.086V350.624L293.275 328.216Z" fill="#E8E9EB"/>
<path d="M301.374 287.621L299.916 324.318L336.848 347.214L337.496 308.243L301.374 287.621Z" fill="#E3F6F8"/>
<path d="M299.916 324.319L301.374 323.507V287.621L299.916 288.433V324.319Z" fill="#CFD4DF"/>
<path d="M334.581 344.454L335.877 343.642L301.374 323.507L299.916 324.319L334.581 344.454Z" fill="#CFD4DF"/>
<path d="M336.688 348.189L338.145 347.377V306.457L336.849 307.269L336.688 348.189Z" fill="#C2C2C2"/>
<path d="M336.849 307.269L338.145 306.457L299.268 283.886L297.811 284.698L336.849 307.269Z" fill="#FAFBFD"/>
<path d="M336.687 348.189L297.648 325.618L297.81 284.698L336.849 307.269L336.687 348.189ZM299.916 324.319L334.581 344.291V308.406L299.916 288.433V324.319Z" fill="#E8E9EB"/>
<path d="M302.184 281.45V283.236L292.465 299.312V297.526L302.184 281.45Z" fill="#DECEBE"/>
<path d="M292.465 297.526V299.312L287.605 296.552V294.603L292.465 297.526Z" fill="#DECEBE"/>
<path d="M302.184 281.45L292.465 297.526L287.605 294.603L298.134 279.015L302.184 281.45Z" fill="#FFE8D2"/>
<path d="M307.043 284.21V286.159L297.324 302.235V300.286L307.043 284.21Z" fill="#FF5959"/>
<path d="M297.324 300.286V302.235L292.465 299.312V297.526L297.324 300.286Z" fill="#BE5356"/>
<path d="M307.043 284.211L297.324 300.286L292.465 297.526L302.184 281.45L307.043 284.211Z" fill="#FF5959"/>
<path d="M312.065 287.134V288.92L302.184 304.996V303.047L312.065 287.134Z" fill="#DECEBE"/>
<path d="M302.184 303.047V304.996L297.324 302.235V300.287L302.184 303.047Z" fill="#DECEBE"/>
<path d="M312.065 287.134L302.184 303.047L297.324 300.287L307.043 284.211L312.065 287.134Z" fill="#FFE8D2"/>
<path d="M316.924 289.894L307.043 305.97L302.184 303.047L312.065 287.134L316.924 289.894Z" fill="#FF5959"/>
<path d="M316.924 289.894V291.68L307.043 307.756V305.97L316.924 289.894Z" fill="#FF5959"/>
<path d="M307.043 305.97V307.756L302.184 304.995V303.047L307.043 305.97Z" fill="#BE5356"/>
<path d="M321.784 292.817V294.603L312.064 310.679V308.73L321.784 292.817Z" fill="#DECEBE"/>
<path d="M312.064 308.73V310.679L307.043 307.756V305.97L312.064 308.73Z" fill="#DECEBE"/>
<path d="M321.784 292.817L312.064 308.73L307.043 305.97L316.924 289.894L321.784 292.817Z" fill="#FFE8D2"/>
<path d="M326.643 295.577V297.363L316.924 313.439V311.653L326.643 295.577Z" fill="#FF5959"/>
<path d="M316.924 311.653V313.439L312.064 310.679V308.73L316.924 311.653Z" fill="#BE5356"/>
<path d="M326.643 295.577L316.924 311.653L312.064 308.73L321.784 292.817L326.643 295.577Z" fill="#FF5959"/>
<path d="M331.502 298.337V300.286L321.783 316.362V314.413L331.502 298.337Z" fill="#DECEBE"/>
<path d="M321.783 314.413V316.362L316.924 313.439V311.653L321.783 314.413Z" fill="#DECEBE"/>
<path d="M331.502 298.338L321.783 314.413L316.924 311.653L326.643 295.577L331.502 298.338Z" fill="#FFE8D2"/>
<path d="M336.362 301.261V303.047L326.643 319.122V317.174L336.362 301.261Z" fill="#FF5959"/>
<path d="M326.643 317.174V319.123L321.783 316.362V314.414L326.643 317.174Z" fill="#BE5356"/>
<path d="M336.362 301.261L326.643 317.174L321.783 314.413L331.502 298.338L336.362 301.261Z" fill="#FF5959"/>
<path d="M341.223 304.021V305.807L331.504 321.883V320.097L341.223 304.021Z" fill="#DECEBE"/>
<path d="M331.504 320.097V321.883L326.645 319.122V317.174L331.504 320.097Z" fill="#DECEBE"/>
<path d="M341.223 304.021L331.504 320.097L326.645 317.174L336.364 301.261L341.223 304.021Z" fill="#FFE8D2"/>
<path d="M440.357 275.442V331.301L414.115 346.565V290.544L440.357 275.442Z" fill="#14B2BE"/>
<path d="M440.034 332.762L438.9 332.113L438.738 276.092L439.872 276.741L440.034 332.762Z" fill="#CFD4DF"/>
<path d="M413.63 348.026L412.496 347.376L412.334 289.894L413.468 290.544L413.63 348.026Z" fill="#CFD4DF"/>
<path d="M413.468 290.543L412.334 289.894L440.195 273.818L441.329 274.468L413.468 290.543Z" fill="#FAFBFD"/>
<path d="M441.33 274.468L441.492 331.95L440.034 332.762L439.872 276.741L414.927 291.355V347.214L413.631 348.026L413.469 290.543L441.33 274.468Z" fill="#E8E9EB"/>
<path d="M435.983 312.302L435.173 311.815C435.011 311.653 434.687 311.653 434.363 311.815L435.335 312.302C435.497 312.302 435.821 312.302 435.983 312.302Z" fill="#BFBBB2"/>
<path d="M435.174 312.465L434.202 311.978C433.554 312.302 433.068 313.277 433.068 313.926C433.068 314.251 433.23 314.576 433.392 314.576L434.202 315.063C434.04 314.9 433.878 314.738 433.878 314.413C434.04 313.601 434.688 312.789 435.174 312.465Z" fill="#BFBBB2"/>
<path d="M435.175 312.464C434.527 312.789 434.041 313.763 434.041 314.413C434.041 315.062 434.527 315.387 435.175 315.063C435.823 314.738 436.309 313.763 436.309 313.114C436.309 312.302 435.823 312.14 435.175 312.464Z" fill="#E5E0D5"/>
<path d="M450.886 310.679L445.379 307.594V305.97L450.886 309.055V310.679Z" fill="#C2C2C2"/>
<path d="M450.886 309.055L445.379 305.97L485.065 283.724L490.41 286.809L450.886 309.055Z" fill="#FAFBFD"/>
<path d="M490.411 286.809V288.433L450.887 310.679V309.055L490.411 286.809Z" fill="#E8E9EB"/>
<path d="M482.31 246.214L483.768 282.912L446.835 305.807L446.188 266.836L482.31 246.214Z" fill="#E3F6F8"/>
<path d="M483.768 282.912L482.311 282.1V246.214L483.606 247.026L483.768 282.912Z" fill="#CFD4DF"/>
<path d="M449.104 303.047L447.646 302.235L482.311 282.1L483.769 282.912L449.104 303.047Z" fill="#CFD4DF"/>
<path d="M446.999 306.782L445.541 305.97L445.379 265.05L446.837 265.862L446.999 306.782Z" fill="#C2C2C2"/>
<path d="M446.837 265.862L445.379 265.05L484.417 242.479L485.875 243.291L446.837 265.862Z" fill="#FAFBFD"/>
<path d="M446.836 265.862L485.874 243.292L486.036 284.211L446.998 306.782L446.836 265.862ZM483.768 282.912V247.026L449.104 267.161V303.047L483.768 282.912Z" fill="#E8E9EB"/>
<path d="M481.34 240.043V241.83L491.059 257.905V255.957L481.34 240.043Z" fill="#DECEBE"/>
<path d="M491.059 255.957V257.905L496.08 255.145V253.196L491.059 255.957Z" fill="#DECEBE"/>
<path d="M481.34 240.044L491.059 255.957L496.08 253.196L485.551 237.608L481.34 240.044Z" fill="#FFE8D2"/>
<path d="M476.479 242.804V244.59L486.198 260.665V258.879L476.479 242.804Z" fill="#FF5959"/>
<path d="M486.197 258.879V260.666L491.057 257.905V255.957L486.197 258.879Z" fill="#BE5356"/>
<path d="M476.479 242.804L486.198 258.879L491.057 255.957L481.338 240.043L476.479 242.804Z" fill="#FF5959"/>
<path d="M471.619 245.727V247.513L481.338 263.589V261.64L471.619 245.727Z" fill="#DECEBE"/>
<path d="M481.338 261.64V263.589L486.197 260.666V258.88L481.338 261.64Z" fill="#DECEBE"/>
<path d="M471.619 245.727L481.338 261.64L486.198 258.88L476.479 242.804L471.619 245.727Z" fill="#FFE8D2"/>
<path d="M466.76 248.488L476.479 264.563L481.338 261.64L471.619 245.727L466.76 248.488Z" fill="#FF5959"/>
<path d="M466.76 248.487V250.273L476.479 266.349V264.563L466.76 248.487Z" fill="#FF5959"/>
<path d="M476.479 264.563V266.349L481.338 263.589V261.64L476.479 264.563Z" fill="#BE5356"/>
<path d="M461.9 251.248V253.197L471.619 269.272V267.324L461.9 251.248Z" fill="#DECEBE"/>
<path d="M471.619 267.323V269.272L476.479 266.349V264.563L471.619 267.323Z" fill="#DECEBE"/>
<path d="M461.9 251.248L471.619 267.323L476.479 264.563L466.76 248.487L461.9 251.248Z" fill="#FFE8D2"/>
<path d="M457.041 254.17V255.957L466.76 272.032V270.084L457.041 254.17Z" fill="#FF5959"/>
<path d="M466.76 270.084V272.032L471.619 269.272V267.323L466.76 270.084Z" fill="#BE5356"/>
<path d="M457.041 254.17L466.76 270.084L471.62 267.323L461.901 251.248L457.041 254.17Z" fill="#FF5959"/>
<path d="M452.182 256.931V258.717L461.901 274.792V273.006L452.182 256.931Z" fill="#DECEBE"/>
<path d="M461.9 273.006V274.792L466.76 272.032V270.083L461.9 273.006Z" fill="#DECEBE"/>
<path d="M452.182 256.931L461.901 273.006L466.76 270.084L457.041 254.17L452.182 256.931Z" fill="#FFE8D2"/>
<path d="M447.16 259.854V261.64L457.041 277.716V275.767L447.16 259.854Z" fill="#FF5959"/>
<path d="M457.041 275.767V277.716L461.901 274.793V273.007L457.041 275.767Z" fill="#BE5356"/>
<path d="M447.16 259.854L457.041 275.767L461.901 273.007L452.182 256.931L447.16 259.854Z" fill="#FF5959"/>
<path d="M442.301 262.614V264.4L452.182 280.476V278.69L442.301 262.614Z" fill="#DECEBE"/>
<path d="M452.182 278.69V280.476L457.041 277.716V275.767L452.182 278.69Z" fill="#DECEBE"/>
<path d="M442.301 262.614L452.182 278.69L457.041 275.767L447.16 259.854L442.301 262.614Z" fill="#FFE8D2"/>
<path d="M369.408 357.931L363.9 354.846V353.222L369.408 356.307V357.931Z" fill="#C2C2C2"/>
<path d="M369.408 356.307L363.9 353.222L403.425 330.976L408.932 334.061L369.408 356.307Z" fill="#FAFBFD"/>
<path d="M408.932 334.061V335.685L369.408 357.931V356.307L408.932 334.061Z" fill="#E8E9EB"/>
<path d="M400.831 293.466L402.289 330.164L365.357 353.06L364.709 314.089L400.831 293.466Z" fill="#E3F6F8"/>
<path d="M402.29 330.165L400.832 329.353V293.467L402.128 294.279L402.29 330.165Z" fill="#CFD4DF"/>
<path d="M367.626 350.299L366.168 349.488L400.833 329.353L402.29 330.164L367.626 350.299Z" fill="#CFD4DF"/>
<path d="M365.52 354.034L364.062 353.222L363.9 312.303L365.358 313.115L365.52 354.034Z" fill="#C2C2C2"/>
<path d="M365.358 313.115L363.9 312.303L402.939 289.732L404.396 290.544L365.358 313.115Z" fill="#FAFBFD"/>
<path d="M365.357 313.115L404.396 290.544L404.558 331.464L365.519 354.034L365.357 313.115ZM402.29 330.165V294.279L367.463 314.414V350.3L402.29 330.165Z" fill="#E8E9EB"/>
<path d="M399.861 287.296V289.082L409.58 305.158V303.371L399.861 287.296Z" fill="#DECEBE"/>
<path d="M409.58 303.372V305.158L414.602 302.397V300.449L409.58 303.372Z" fill="#DECEBE"/>
<path d="M399.861 287.296L409.58 303.372L414.602 300.449L404.073 284.86L399.861 287.296Z" fill="#FFE8D2"/>
<path d="M395 290.056V292.005L404.719 308.08V306.132L395 290.056Z" fill="#FF5959"/>
<path d="M404.719 306.132V308.081L409.578 305.158V303.372L404.719 306.132Z" fill="#BE5356"/>
<path d="M395 290.056L404.719 306.132L409.579 303.371L399.86 287.296L395 290.056Z" fill="#FF5959"/>
<path d="M390.141 292.979V294.766L399.86 310.841V308.893L390.141 292.979Z" fill="#DECEBE"/>
<path d="M399.859 308.893V310.841L404.719 308.081V306.132L399.859 308.893Z" fill="#DECEBE"/>
<path d="M390.141 292.979L399.86 308.893L404.719 306.132L395 290.057L390.141 292.979Z" fill="#FFE8D2"/>
<path d="M385.281 295.74L395 311.816L399.86 308.893L390.141 292.979L385.281 295.74Z" fill="#FF5959"/>
<path d="M385.281 295.74V297.526L395 313.601V311.815L385.281 295.74Z" fill="#FF5959"/>
<path d="M395 311.815V313.602L399.86 310.841V308.893L395 311.815Z" fill="#BE5356"/>
<path d="M380.422 298.5V300.449L390.141 316.525V314.576L380.422 298.5Z" fill="#DECEBE"/>
<path d="M390.141 314.576V316.524L395 313.602V311.815L390.141 314.576Z" fill="#DECEBE"/>
<path d="M380.422 298.5L390.141 314.576L395 311.815L385.281 295.74L380.422 298.5Z" fill="#FFE8D2"/>
<path d="M375.562 301.423V303.209L385.282 319.285V317.498L375.562 301.423Z" fill="#FF5959"/>
<path d="M385.281 317.499V319.285L390.141 316.524V314.576L385.281 317.499Z" fill="#BE5356"/>
<path d="M375.562 301.423L385.282 317.498L390.141 314.576L380.422 298.5L375.562 301.423Z" fill="#FF5959"/>
<path d="M370.541 304.183L370.703 306.132L380.422 322.045V320.259L370.541 304.183Z" fill="#DECEBE"/>
<path d="M380.422 320.259V322.045L385.281 319.285V317.499L380.422 320.259Z" fill="#DECEBE"/>
<path d="M370.541 304.183L380.422 320.259L385.282 317.498L375.563 301.423L370.541 304.183Z" fill="#FFE8D2"/>
<path d="M365.682 307.106V308.893L375.563 324.968V323.02L365.682 307.106Z" fill="#FF5959"/>
<path d="M375.562 323.02V324.968L380.422 322.045V320.259L375.562 323.02Z" fill="#BE5356"/>
<path d="M365.682 307.106L375.563 323.02L380.422 320.259L370.541 304.184L365.682 307.106Z" fill="#FF5959"/>
<path d="M360.822 309.867V311.653L370.703 327.728V325.942L360.822 309.867Z" fill="#DECEBE"/>
<path d="M370.703 325.942V327.729L375.563 324.968V323.02L370.703 325.942Z" fill="#DECEBE"/>
<path d="M360.822 309.867L370.703 325.942L375.563 323.02L365.682 307.106L360.822 309.867Z" fill="#FFE8D2"/>
<path d="M421.89 361.016L418.164 358.905V351.111L421.89 353.222V361.016Z" fill="#C2C2C2"/>
<path d="M421.89 353.222L418.164 351.111L445.053 335.522L448.779 337.633L421.89 353.222Z" fill="#FAFBFD"/>
<path d="M448.78 337.633V345.428L421.891 361.016V353.222L448.78 337.633Z" fill="#E8E9EB"/>
<path d="M425.616 363.127L421.891 361.016V356.632L425.616 358.743V363.127Z" fill="#C2C2C2"/>
<path d="M425.616 358.743L421.891 356.632L448.78 341.043L452.506 343.154L425.616 358.743Z" fill="#FAFBFD"/>
<path d="M452.507 343.154V347.539L425.617 363.127V358.743L452.507 343.154Z" fill="#E8E9EB"/>
<path d="M449.429 227.865L445.704 225.754L436.309 231.112L440.034 233.386L449.429 227.865Z" fill="#FF5959"/>
<path d="M437.117 230.626C435.821 229.976 434.687 229.164 433.391 228.515C430.313 226.728 426.102 227.053 421.404 229.651L425.13 231.762C429.827 229.002 434.039 228.839 437.117 230.626Z" fill="#FF5959"/>
<mask id="mask0_238_2500" style="mask-type:luminance" maskUnits="userSpaceOnUse" x="421" y="227" width="17" height="5">
<path d="M437.117 230.626C435.821 229.976 434.687 229.164 433.391 228.515C430.313 226.728 426.102 227.053 421.404 229.651L425.13 231.762C429.827 229.002 434.039 228.839 437.117 230.626Z" fill="white"/>
</mask>
<g mask="url(#mask0_238_2500)">
<path d="M437.117 230.626L433.391 228.515C430.313 226.728 426.102 227.053 421.404 229.651L425.13 231.762C429.827 229.002 434.039 228.839 437.117 230.626Z" fill="#FF5959"/>
</g>
<path d="M425.13 231.762L421.405 229.651C415.087 233.386 409.418 240.693 406.664 248.325L410.39 250.435C413.305 242.804 418.813 235.497 425.13 231.762Z" fill="#FF5959"/>
<mask id="mask1_238_2500" style="mask-type:luminance" maskUnits="userSpaceOnUse" x="406" y="229" width="20" height="22">
<path d="M425.13 231.762L421.405 229.651C415.087 233.386 409.418 240.693 406.664 248.325L410.39 250.435C413.305 242.804 418.813 235.497 425.13 231.762Z" fill="white"/>
</mask>
<g mask="url(#mask1_238_2500)">
<path d="M425.13 231.762L421.405 229.651C415.087 233.386 409.418 240.693 406.664 248.325L410.39 250.435C413.305 242.804 418.813 235.497 425.13 231.762Z" fill="#FF5959"/>
</g>
<path d="M400.995 255.957L397.27 253.846V273.656L400.995 275.767V255.957Z" fill="#FF5959"/>
<path d="M410.39 250.436L406.665 248.325L397.27 253.846L400.995 255.957L410.39 250.436Z" fill="#FF5959"/>
<path d="M425.132 231.762C418.814 235.497 413.145 242.804 410.391 250.436L400.996 255.794V275.605L449.429 247.513V227.703L440.034 233.061C437.119 229.002 431.611 228.027 425.132 231.762Z" fill="#FF5959"/>
<path d="M404.721 259.691C404.721 257.093 406.179 255.144 408.122 253.845C410.552 252.222 412.172 251.734 413.306 251.41V254.332C412.172 254.82 410.39 255.794 409.256 256.443C408.284 256.931 407.96 257.255 407.96 258.067V258.23C407.96 258.879 408.122 259.041 408.932 258.554L410.552 257.58C413.144 256.119 413.63 258.392 413.63 259.853V260.503C413.63 264.075 411.848 265.861 410.228 266.836C407.15 268.622 406.665 268.947 405.045 269.109V266.186C405.693 265.861 407.798 264.725 409.418 263.913C410.066 263.426 410.39 263.101 410.39 262.614V262.289C410.39 261.802 410.228 261.477 409.58 261.964L408.122 262.776C404.883 264.562 404.721 261.477 404.721 260.503V259.691Z" fill="#FAFBFD"/>
<path d="M414.926 250.111L418.165 248.162V253.845L421.081 252.222V246.538L424.321 244.59V259.042L421.081 260.99V255.794L418.165 257.418V262.614L414.926 264.563V250.111Z" fill="#FAFBFD"/>
<path d="M430.639 241.017C433.555 239.394 435.661 238.744 435.661 245.402C435.661 251.734 433.555 253.683 430.639 255.469C427.561 257.255 425.618 257.742 425.618 251.247C425.456 244.59 427.723 242.641 430.639 241.017ZM430.639 252.059C432.097 251.247 432.421 250.273 432.421 247.35C432.421 244.103 432.097 243.615 430.639 244.427C429.181 245.239 428.857 245.889 428.857 249.461C428.857 252.384 429.019 253.033 430.639 252.059Z" fill="#FAFBFD"/>
<path d="M436.793 237.445L442.3 234.197C444.082 233.223 446.026 232.411 446.026 236.633C446.026 241.18 443.758 242.804 442.3 243.615C441.652 243.94 440.195 244.59 440.033 244.59V249.786L436.793 251.734V237.445ZM441.976 240.693C442.624 240.368 442.786 239.556 442.786 238.582C442.786 237.607 442.462 237.283 441.976 237.607L440.033 238.744V241.829L441.976 240.693Z" fill="#FAFBFD"/>
<path d="M149.477 371.515L73.1856 417.183C70.1233 419.047 69.0582 423.041 70.9222 426.104C71.4548 427.036 72.2536 427.834 73.1856 428.367L210.057 507.987C215.516 511.182 222.306 510.916 227.632 507.321L294.337 461.387C298.464 458.591 299.663 452.865 296.733 448.738C295.935 447.54 294.869 446.608 293.671 445.942L163.191 371.248C158.93 368.852 153.737 368.985 149.477 371.515Z" fill="#FDE48E"/>
<path d="M83.9707 410.792L237.618 499.998L257.723 486.285L104.209 398.676L83.9707 410.792Z" fill="#124577"/>
<path d="M263.447 462.319C271.242 462.319 277.56 458.682 277.56 454.197C277.56 449.711 271.242 446.075 263.447 446.075C255.653 446.075 249.334 449.711 249.334 454.197C249.334 458.682 255.653 462.319 263.447 462.319Z" fill="#124577"/>
<path d="M251.998 455.528C259.792 455.528 266.111 451.892 266.111 447.406C266.111 442.921 259.792 439.285 251.998 439.285C244.203 439.285 237.885 442.921 237.885 447.406C237.885 451.892 244.203 455.528 251.998 455.528Z" fill="#FF5959"/>
<path d="M240.993 90.0951C218.892 103.276 164.037 135.63 147.66 145.083C144.864 146.681 143.133 149.743 143.133 153.072V378.217C142.734 382.877 147.926 387.005 152.187 384.608L244.322 332.15C248.05 330.419 250.313 326.691 250.447 322.697V95.4208C250.447 91.9591 247.651 89.1631 244.189 89.1631C243.124 89.2962 241.925 89.5625 240.993 90.0951Z" fill="#14B2BE"/>
<path d="M249.781 92.7582L220.489 109.667V115.925C220.489 116.99 219.957 118.055 219.025 118.588L196.524 131.503C195.725 132.169 194.526 131.902 193.861 131.103C193.594 130.704 193.461 130.305 193.594 129.905V125.245L151.388 149.877C150.589 150.409 150.057 151.208 150.057 152.14V377.152C150.057 378.218 150.989 379.016 152.054 378.883C152.32 378.883 152.586 378.75 152.719 378.75L250.314 322.164C250.58 325.759 248.982 329.221 246.053 331.085C240.994 334.28 152.054 384.608 152.054 384.608C152.054 384.608 144.997 387.804 143 379.416V153.072C143 150.143 144.331 147.214 146.728 145.483C150.855 142.554 240.86 89.829 240.86 89.829C243.923 88.0982 247.784 89.1633 249.515 92.2256C249.781 92.4919 249.781 92.625 249.781 92.7582Z" fill="#124577"/>
<path d="M151.388 149.877C151.388 149.877 173.356 159.064 172.957 199.539L146.328 185.826V149.877H151.388Z" fill="#FF5959"/>
<path d="M189.999 169.715C187.337 159.996 152.986 144.418 152.986 144.418L146.195 148.146V160.795C153.651 164.523 162.572 170.248 167.099 176.905C175.62 189.687 171.093 198.341 171.093 198.341C171.226 199.007 179.481 202.868 186.405 198.341C193.328 193.814 192.795 179.435 189.999 169.715Z" fill="#FF5959"/>
<path d="M265.093 146.015C265.093 146.015 269.62 137.361 261.098 124.712C252.577 112.064 227.812 103.01 227.812 103.01L247.118 92.0923C247.118 92.0923 281.336 107.67 284.132 117.39C286.928 127.109 287.461 141.622 280.537 146.148C273.614 150.675 265.093 146.015 265.093 146.015Z" fill="#FFE8D2"/>
<path d="M245.52 156.667C245.52 156.667 250.047 148.013 241.526 135.364C233.005 122.716 208.24 113.662 208.24 113.662L227.546 102.744C227.546 102.744 261.764 118.322 264.56 128.041C267.356 137.761 268.022 152.407 260.965 156.8C253.908 161.194 245.52 156.667 245.52 156.667Z" fill="#FF5959"/>
<path d="M226.747 167.451C226.747 167.451 231.274 158.797 222.753 146.148C214.231 133.5 189.467 124.446 189.467 124.446L208.639 113.528C208.639 113.528 242.857 129.106 245.653 138.826C248.449 148.545 249.115 163.191 242.058 167.585C235.002 171.978 226.747 167.451 226.747 167.451Z" fill="#FFE8D2"/>
<path d="M208.241 177.704C208.241 177.704 212.768 169.05 204.247 156.401C195.726 143.752 170.961 134.699 170.961 134.699L190.267 123.781C190.267 123.781 224.485 139.359 227.281 149.078C230.077 158.797 230.742 173.443 223.686 177.837C216.629 182.231 208.241 177.704 208.241 177.704Z" fill="#FF5959"/>
<path d="M191.33 189.687C191.33 189.687 193.86 179.834 185.206 167.052C176.551 154.27 151.92 145.35 151.92 145.35L171.226 134.432C171.226 134.432 205.444 150.01 208.24 159.729C211.036 169.449 211.701 183.961 204.778 188.488C200.65 191.018 195.724 191.551 191.33 189.687Z" fill="#FFE8D2"/>
<path d="M173.756 215.65V263.847C173.756 267.309 176.552 270.105 180.014 270.238C181.212 270.238 182.277 269.972 183.342 269.306L229.01 242.944C231.94 241.213 233.67 238.151 233.67 234.822V186.092C233.67 182.63 230.874 179.834 227.413 179.834C226.214 179.834 225.149 180.1 224.217 180.766L178.416 207.927C175.487 209.525 173.756 212.454 173.756 215.65Z" fill="white"/>
<path d="M173.756 287.281V335.479C173.756 338.94 176.552 341.736 180.014 341.736C181.212 341.736 182.277 341.47 183.209 340.804L228.877 314.442C231.806 312.711 233.537 309.649 233.537 306.32V257.59C233.537 254.128 230.741 251.332 227.279 251.332C226.081 251.332 225.016 251.598 224.084 252.264L178.283 279.425C175.487 281.023 173.756 283.952 173.756 287.281Z" fill="white"/>
<path d="M196.789 209.392L213.432 200.604L219.823 239.349L209.971 244.542L206.908 220.709L207.84 245.873L195.857 252.53L196.789 209.392Z" fill="#124577"/>
<path d="M196.789 281.023L213.432 272.235L219.823 310.98L209.971 316.173L206.908 292.34L207.84 317.504L195.857 324.161L196.789 281.023Z" fill="#FDE48E"/>
<path d="M187.63 256.772C188.468 253.876 187.66 251.098 185.823 250.566C183.987 250.034 181.818 251.95 180.98 254.846C180.141 257.742 180.95 260.521 182.786 261.052C184.622 261.584 186.791 259.668 187.63 256.772Z" fill="#124577"/>
<path d="M186.167 328.215C187.005 325.319 186.197 322.54 184.36 322.008C182.524 321.476 180.355 323.393 179.517 326.288C178.678 329.184 179.487 331.963 181.323 332.495C183.159 333.027 185.328 331.11 186.167 328.215Z" fill="#FDE48E"/>
<path d="M158.691 370.047L204.691 348.746L224.7 353.773L192.83 373.881L173.234 380.953L158.691 370.047Z" fill="#F7931E"/>
<path d="M175.092 377.8L224.701 353.773L225.835 404.898L178.257 430.768L175.092 377.8Z" fill="#FFB72F"/>
<path d="M175.089 377.8L158.69 370.047L157.836 420.714L178.257 430.768" fill="#FFB72F"/>
<path opacity="0.51" d="M175.091 377.8L158.693 370.047L157.834 420.714L178.255 430.768" fill="#F7931E"/>
<path d="M210.161 360.845C210.161 360.845 207.995 347.043 195.722 349.258C183.449 351.473 186.749 372.348 186.749 372.348L183.552 373.796C183.552 373.796 178.292 354.966 190.668 348.917C203.045 342.868 211.812 352.666 213.049 359.567" fill="white"/>
<path d="M171.483 364.083C171.483 364.083 167.151 349.002 181.797 344.912C196.442 340.822 198.093 351.813 198.093 351.813L193.967 353.688C193.967 353.688 193.967 345.168 183.344 346.786C172.721 348.405 175.093 362.379 175.093 362.379" fill="white"/>
<path d="M207.01 385.563L244.5 364.548L260.808 369.507L234.833 389.345L218.862 396.322L207.01 385.563Z" fill="#124577"/>
<path d="M220.375 393.211L260.807 369.507L263.833 407.501L222.476 431.626L220.375 393.211Z" fill="#14B2BE"/>
<path d="M220.376 393.211L207.011 385.562L205.834 421.707L222.478 431.626" fill="#14B2BE"/>
<path opacity="0.51" d="M220.376 393.211L207.011 385.562L205.834 421.707L222.478 431.626" fill="#124577"/>
<path d="M248.957 376.484C248.957 376.484 247.192 362.867 237.189 365.052C227.186 367.238 229.876 387.832 229.876 387.832L227.27 389.261C227.27 389.261 222.983 370.684 233.07 364.716C243.157 358.748 250.302 368.414 251.311 375.223" fill="white"/>
<path d="M217.433 379.678C217.433 379.678 213.903 364.8 225.839 360.765C237.775 356.73 239.12 367.574 239.12 367.574L235.758 369.423C235.758 369.423 235.758 361.017 227.1 362.614C218.442 364.211 220.375 377.997 220.375 377.997" fill="white"/>
</svg>
