<svg xmlns="http://www.w3.org/2000/svg" viewBox="0 0 450 391.16"><defs><style>.cls-1{opacity:0.4;}.cls-2{fill:#969696;}.cls-10,.cls-14,.cls-3{fill:none;stroke-miterlimit:10;}.cls-14,.cls-3{stroke:#121d30;}.cls-10,.cls-3{stroke-width:0.75px;}.cls-4{fill:#fff;}.cls-5{fill:#121d30;}.cls-6{fill:#d28a7b;}.cls-7{fill:#cb705d;}.cls-8{fill:#edb837;}.cls-9{fill:#2e363d;}.cls-10{stroke:#fff;}.cls-11{fill:#5c5c5c;}.cls-12{fill:#e69230;}.cls-13{fill:#dedede;}</style></defs><title>9276431</title><g id="OBJECTS"><g class="cls-1"><path class="cls-2" d="M472.63,271c-6.23-19.93-22.34-34.88-36.92-49.84s-28.92-32.56-29.94-53.42c-1.45-30,25.14-56.37,22.4-86.28-2.37-26-27.74-45.56-53.68-48.55s-51.69,7.2-74.23,20.4S257.07,82.89,233.6,94.35c-33.82,16.53-71.77,22-108.64,29.61-27.13,5.6-55.28,13.15-75.45,32.13C34,170.66,24.52,191.68,25,212.92s11.41,42.24,29.19,53.87c27.55,18,63.93,11.46,95.6,2.44s65.72-19.82,96.63-8.48,50.19,41.95,77.17,60.91c29.5,20.73,70.81,24.84,106.2,22.39C463.08,341.75,481.93,300.7,472.63,271Z" transform="translate(-25 -32.35)"/><path class="cls-2" d="M80.39,294.13,48.63,281.32c-3.49-1.41-7.21-2.84-10.92-2.2-6.88,1.18-10.72,9.39-9.46,16.26s6.14,12.46,11.2,17.27c6.61,6.27,14,11.94,22.44,15.34S80,332.33,88.6,329.24c6.41-2.32,18-10.75,16.28-18.86S86.81,296.72,80.39,294.13Z" transform="translate(-25 -32.35)"/></g><rect class="cls-3" x="284.82" y="204.57" width="137.48" height="186.08"/><rect class="cls-3" x="291.43" y="213.52" width="124.27" height="168.19"/><rect class="cls-3" x="338" y="307.95" width="31.12" height="10.23"/><rect class="cls-3" x="334.1" y="323.3" width="38.94" height="4.21"/><polyline class="cls-3" points="305.63 378.51 295.08 378.51 300.44 378.51"/><line class="cls-3" x1="295.08" y1="374.99" x2="298.93" y2="374.99"/><line class="cls-3" x1="350.02" y1="309.6" x2="357.87" y2="309.6"/><line class="cls-3" x1="345.15" y1="312.48" x2="362.73" y2="312.48"/><line class="cls-3" x1="350.49" y1="315.84" x2="357.39" y2="315.84"/><line class="cls-3" x1="415.7" y1="299.09" x2="291.43" y2="299.09"/><rect class="cls-3" x="338" y="220.99" width="31.12" height="10.23"/><rect class="cls-3" x="334.1" y="236.33" width="38.94" height="4.21"/><line class="cls-3" x1="396.43" y1="295.7" x2="412.11" y2="295.7"/><line class="cls-3" x1="409.16" y1="293.14" x2="412.11" y2="293.14"/><line class="cls-3" x1="344.96" y1="222.91" x2="362.88" y2="222.91"/><line class="cls-3" x1="341.43" y1="225.89" x2="366.41" y2="225.89"/><line class="cls-3" x1="290.6" y1="215.76" x2="296.81" y2="215.76"/><line class="cls-3" x1="290.6" y1="219.92" x2="309.79" y2="219.92"/><path class="cls-4" d="M88.31,230.86l64.21,14c-9.79-29.16,26.66-48.22,16.88-77.38l-64.21-14C115,182.64,78.53,201.71,88.31,230.86Z" transform="translate(-25 -32.35)"/><path class="cls-3" d="M131.66,212.09,120.1,209.9l.22-1.16a14.7,14.7,0,0,1,1.57-4.66,11,11,0,0,1,2.63-3,65.53,65.53,0,0,1,7-4.23c1.89-1,2.95-2.1,3.16-3.21a3.46,3.46,0,0,0-.5-2.79,4.35,4.35,0,0,0-2.82-1.5,4.91,4.91,0,0,0-3.85.76q-1.68,1.15-2.75,4.65l-11.53-3.7a16.39,16.39,0,0,1,6.71-9.59q4.88-3.18,13.4-1.57,6.63,1.25,10.18,4.79a11.72,11.72,0,0,1,3.65,11,9.81,9.81,0,0,1-2.37,4.72,25.26,25.26,0,0,1-7,4.77,15.85,15.85,0,0,0-4.61,3.17A8.1,8.1,0,0,0,131.66,212.09Zm-12.54.81,12.39,2.34-2.07,10.92-12.38-2.34Z" transform="translate(-25 -32.35)"/><path class="cls-4" d="M320.39,200.57,377,167.14c-27-14.7-13.27-53.47-40.28-68.18l-56.58,33.42C307.12,147.09,293.38,185.86,320.39,200.57Z" transform="translate(-25 -32.35)"/><path class="cls-3" d="M339.52,154.88l-10.25,5.77-.57-1a14.53,14.53,0,0,1-1.81-4.58,11.11,11.11,0,0,1,.09-4,62.92,62.92,0,0,1,2.6-7.72c.78-2,.9-3.51.34-4.5a3.45,3.45,0,0,0-2.17-1.81,4.34,4.34,0,0,0-3.13.68,4.9,4.9,0,0,0-2.45,3.05c-.36,1.32-.06,3.09.89,5.33l-11.2,4.61a16.34,16.34,0,0,1-1-11.66q1.67-5.58,9.22-9.84,5.88-3.32,10.88-2.9a11.72,11.72,0,0,1,9.9,6.08,9.76,9.76,0,0,1,1.22,5.14c0,1.9-.79,4.6-2.24,8.12a15.75,15.75,0,0,0-1.48,5.41A8.12,8.12,0,0,0,339.52,154.88Zm-9.06,8.7,11-6.19,5.46,9.68-11,6.19Z" transform="translate(-25 -32.35)"/><path class="cls-4" d="M373.09,308l-56.58-33.42c27-14.71,13.28-53.48,40.28-68.18l56.58,33.42C386.37,254.55,400.1,293.33,373.09,308Z" transform="translate(-25 -32.35)"/><path class="cls-3" d="M366.57,266.56l-10.52-5.28.53-1a14.43,14.43,0,0,1,2.8-4.05,10.75,10.75,0,0,1,3.35-2.15,61,61,0,0,1,7.85-2.15c2.11-.47,3.41-1.21,3.92-2.22a3.45,3.45,0,0,0,.29-2.82,4.3,4.3,0,0,0-2.3-2.22,5,5,0,0,0-3.9-.33q-1.95.66-3.93,3.71l-10.07-6.72a16.35,16.35,0,0,1,9.09-7.37q5.56-1.72,13.31,2.16,6,3,8.48,7.41a11.72,11.72,0,0,1,.48,11.61,9.86,9.86,0,0,1-3.58,3.89,25.16,25.16,0,0,1-8,2.67,16,16,0,0,0-5.31,1.78A8.09,8.09,0,0,0,366.57,266.56Zm-12.28-2.66,11.26,5.65-5,9.94-11.26-5.66Z" transform="translate(-25 -32.35)"/><path class="cls-5" d="M234.18,150.73s16.21-23.64,36.48-11.86c25.37,14.76-5.27,49.91,13.48,60.08s38.14,11,43.55,39.1c7.06,36.78-59.47,88.5-115.73,55.76s-36.25-94-9.83-106.22C233.92,172.92,234.18,150.73,234.18,150.73Z" transform="translate(-25 -32.35)"/><path class="cls-6" d="M257.29,213.47v25.22a15.22,15.22,0,1,1-30.44,0V213.47Z" transform="translate(-25 -32.35)"/><path class="cls-6" d="M193.58,196.18a11.41,11.41,0,1,0,8.89-13.46A11.41,11.41,0,0,0,193.58,196.18Z" transform="translate(-25 -32.35)"/><path class="cls-5" d="M210.69,177.08v19.23s-7.63-6.78-7.42-20.13Z" transform="translate(-25 -32.35)"/><line class="cls-3" x1="171.71" y1="159.51" x2="180.74" y2="165.62"/><path class="cls-6" d="M259.62,193.89a11.41,11.41,0,1,0,8.88-13.46A11.41,11.41,0,0,0,259.62,193.89Z" transform="translate(-25 -32.35)"/><path class="cls-5" d="M270.79,191.6s6.52-7.13,4.23-24h-9.14Z" transform="translate(-25 -32.35)"/><line class="cls-3" x1="243.91" y1="164.29" x2="252.76" y2="155.72"/><path class="cls-6" d="M240.74,147h0a30,30,0,0,0-30.05,30.05V199a13.41,13.41,0,0,0,6.3,11.37l16.63,10.41a13.4,13.4,0,0,0,14.24,0l16.63-10.41a13.41,13.41,0,0,0,6.3-11.37V177.08A30,30,0,0,0,240.74,147Z" transform="translate(-25 -32.35)"/><path class="cls-3" d="M226.85,216.75l6.77,4.24a13.4,13.4,0,0,0,14.24,0" transform="translate(-25 -32.35)"/><polyline class="cls-3" points="213.22 114.68 220.76 166.61 211.3 166.61"/><path class="cls-7" d="M269.45,192.35a7.69,7.69,0,1,1-7.69-7.69A7.69,7.69,0,0,1,269.45,192.35Z" transform="translate(-25 -32.35)"/><circle class="cls-7" cx="220.83" cy="192.35" r="7.69" transform="translate(-96.33 180.14) rotate(-45)"/><path class="cls-5" d="M257.28,185c0,2.67-1.18,4.82-2.64,4.82S252,187.67,252,185c0-2.15.78-4,1.86-4.58h0l3.24,2.87A9.17,9.17,0,0,1,257.28,185Z" transform="translate(-25 -32.35)"/><path class="cls-5" d="M229.49,185c0,2.67-1.18,4.82-2.64,4.82s-2.65-2.15-2.65-4.82a7.9,7.9,0,0,1,.28-2.13l3.72-2A6.17,6.17,0,0,1,229.49,185Z" transform="translate(-25 -32.35)"/><path class="cls-5" d="M275.87,142.94c-20.27-11.78-41.69,7.78-41.69,7.78s-.27,22.2-32.05,36.87c-6.7,3.09-15.68,14.11-19.89,20.81,0,0,9.29-26.79,12.22-44.12s18.35-14.67,18.35-14.67S222.14,126.8,248,126.9C265.85,127,275.87,142.94,275.87,142.94Z" transform="translate(-25 -32.35)"/><path class="cls-5" d="M255.28,166.17c3.68-2.39,6-1.86,5.44,3.24Z" transform="translate(-25 -32.35)"/><path class="cls-5" d="M218.57,170.51c-.83-4.3.54-6.25,5.05-3.81Z" transform="translate(-25 -32.35)"/><path class="cls-3" d="M235.89,207.7c4-5.39,9-3.18,10.29,0" transform="translate(-25 -32.35)"/><path class="cls-6" d="M369.85,310h0a14.36,14.36,0,0,0-2.28-20.19l-55.82-44.48a14.36,14.36,0,0,0-20.18,2.28h0a14.36,14.36,0,0,0,2.28,20.19l55.82,44.48A14.35,14.35,0,0,0,369.85,310Z" transform="translate(-25 -32.35)"/><path class="cls-6" d="M116.65,312.48h0a14.38,14.38,0,0,1,2.28-20.19l55.82-44.48a14.37,14.37,0,0,1,20.19,2.28h0a14.38,14.38,0,0,1-2.28,20.19l-55.82,44.48A14.36,14.36,0,0,1,116.65,312.48Z" transform="translate(-25 -32.35)"/><path class="cls-8" d="M287.27,230.93l-41.51,13.79v.44l-42.84-14.23a17.51,17.51,0,0,0-22.21,21.89l32.15,101.56h57.47l39.15-101.56A17.5,17.5,0,0,0,287.27,230.93Z" transform="translate(-25 -32.35)"/><polygon class="cls-8" points="237.9 227.44 242.17 199.25 193.81 194.56 198.3 227.44 237.9 227.44"/><path class="cls-5" d="M221.44,242.21c6.7,14.69,18,21.35,27,21.35,7.18,0,12.9-4,16-10.88-1.36,14.32-5.63,44.71-17.49,44.71a7.93,7.93,0,0,1-2.39-.4c-14.37-4.57-21-40.25-23.12-54.78m-1.54-6s5.74,55.59,24.44,61.54a8.48,8.48,0,0,0,2.61.43c16.34,0,18.79-52.72,18.79-52.72-1.79,11.69-8.94,17.39-17.26,17.39-10.5,0-22.84-9.08-28.58-26.64Z" transform="translate(-25 -32.35)"/><polygon class="cls-9" points="176.3 304.32 256.19 299.99 249.19 320.23 182.69 319.51 176.3 304.32"/><path class="cls-9" d="M274.19,352.58s27.36,25.3,29,70.43H180.81c0-42.41,26.88-71.15,26.88-71.15Z" transform="translate(-25 -32.35)"/><path class="cls-10" d="M242.79,357.15l1.64,33.49s-6.52-2.63-6.36-13.86" transform="translate(-25 -32.35)"/><path class="cls-10" d="M288.85,371.23H269s9.24,21.59,28.9,19.7" transform="translate(-25 -32.35)"/><path class="cls-10" d="M183.73,394s14.64,3.53,27.62-17.27" transform="translate(-25 -32.35)"/><rect class="cls-11" x="184.95" y="316.78" width="13.84" height="6.92"/><rect class="cls-11" x="231.88" y="316.78" width="13.84" height="6.92"/><rect class="cls-11" x="205.22" y="316.78" width="21.03" height="6.92"/><rect class="cls-4" x="210.58" y="315.39" width="10.33" height="9.71"/><path class="cls-6" d="M121,290.62h0a18.12,18.12,0,0,1,25,5.75l36.09,64.94L171,374.11,115.24,315.6A18.12,18.12,0,0,1,121,290.62Z" transform="translate(-25 -32.35)"/><path class="cls-6" d="M177.57,357.34c14.61-.06,27.83-7.42,27.83-7.42l8.21,25.66c-24.05,9.12-36.22,3.11-42.64-1.43Z" transform="translate(-25 -32.35)"/><path class="cls-6" d="M205.4,349.92s13.47-1.2,23.09,5.16l1.73,16s-11.23-3.68-18.44-1.24c0,0,12.44,2.36,17.26,7.59l-3.41,3.44s-10.76-4.75-22.4-3.1Z" transform="translate(-25 -32.35)"/><path class="cls-3" d="M228.83,359.16s-11.23-3.64-19.66-3.87" transform="translate(-25 -32.35)"/><path class="cls-3" d="M229.61,365.42s-9.89-4-20.16-3.24" transform="translate(-25 -32.35)"/><polygon class="cls-12" points="134.18 211.06 152.98 231.28 163.99 259.72 144.79 237.95 134.18 211.06"/><polygon class="cls-8" points="161.42 201.57 128.97 221.13 151.78 258.62 173.07 244.1 161.42 201.57"/><polygon class="cls-4" points="134.18 211.06 144.79 237.95 163.99 259.72 147.88 265.68 132.81 245.09 122.3 218.82 134.18 211.06"/><line class="cls-3" x1="125.48" y1="272.14" x2="120.97" y2="264.02"/><path class="cls-6" d="M365.51,288.17h0a18.13,18.13,0,0,0-25,5.75l-36.09,64.94,11.06,12.8,55.77-58.51A18.12,18.12,0,0,0,365.51,288.17Z" transform="translate(-25 -32.35)"/><path class="cls-6" d="M308.94,354.89c-14.62-.06-27.83-7.42-27.83-7.42l-8.22,25.66c24.06,9.12,36.23,3.11,42.64-1.43Z" transform="translate(-25 -32.35)"/><path class="cls-6" d="M281.11,347.47s-13.47-1.2-23.09,5.16l-1.74,16s11.24-3.68,18.44-1.24c0,0-12.43,2.36-17.25,7.6l3.41,3.43s10.76-4.75,22.4-3.1Z" transform="translate(-25 -32.35)"/><path class="cls-3" d="M257.68,356.71s11.22-3.63,19.66-3.87" transform="translate(-25 -32.35)"/><path class="cls-3" d="M256.9,363s9.88-4,20.15-3.24" transform="translate(-25 -32.35)"/><polygon class="cls-12" points="302.33 208.61 283.53 228.83 272.52 257.27 291.71 235.5 302.33 208.61"/><polygon class="cls-8" points="275.09 199.12 307.54 218.68 284.73 256.17 263.44 241.65 275.09 199.12"/><polygon class="cls-4" points="302.33 208.61 291.71 235.5 272.52 257.27 288.63 263.23 303.69 242.64 314.2 216.37 302.33 208.61"/><line class="cls-3" x1="311.02" y1="269.69" x2="315.53" y2="261.57"/><path class="cls-13" d="M157.53,387.86H277a0,0,0,0,1,0,0v1.32a1.48,1.48,0,0,1-1.48,1.48H159a1.48,1.48,0,0,1-1.48-1.48v-1.32A0,0,0,0,1,157.53,387.86Z"/><path class="cls-2" d="M267,377.84H217.67v16.87c16.26-3.7,32.76-6.77,49.29-9.63Z" transform="translate(-25 -32.35)"/><path class="cls-13" d="M217.67,394.71v17.47H267v-27.1C250.43,387.94,233.93,391,217.67,394.71Z" transform="translate(-25 -32.35)"/><path class="cls-13" d="M301.33,421h-118a.7.7,0,0,1-.22-1.37l34.59-11.38H267l34.59,11.38A.7.7,0,0,1,301.33,421Z" transform="translate(-25 -32.35)"/><line class="cls-3" x1="236.37" y1="375.91" x2="240.8" y2="375.91"/><line class="cls-3" x1="192.67" y1="375.91" x2="231.82" y2="375.91"/><line class="cls-3" x1="192.67" y1="362.36" x2="229.77" y2="354.88"/><line class="cls-3" x1="241.96" y1="345.49" x2="241.96" y2="375.91"/><line class="cls-3" x1="191.65" y1="388.66" x2="275.53" y2="388.66"/><line class="cls-3" x1="192.67" y1="347.53" x2="192.67" y2="373.32"/><rect class="cls-13" x="112.11" y="204.68" width="210.34" height="144.6" rx="8.36"/><path class="cls-3" d="M347.46,267.74V373.27a8.36,8.36,0,0,1-8.37,8.36H246.47" transform="translate(-25 -32.35)"/><path class="cls-3" d="M347.46,267.74" transform="translate(-25 -32.35)"/><path class="cls-3" d="M137.11,354.38v-109a8.36,8.36,0,0,1,8.37-8.36H339.09" transform="translate(-25 -32.35)"/><path class="cls-4" d="M283.59,289.48a24.42,24.42,0,0,0-15.18,5.28c0-.08,0-.16,0-.24a26.13,26.13,0,0,0-52.26,0v.24A24.51,24.51,0,1,0,201,338.51c.32,0,.63,0,1,0s.63,0,.95,0h79.18l.77,0,.76,0a24.52,24.52,0,0,0,0-49Z" transform="translate(-25 -32.35)"/><path class="cls-3" d="M283.59,289.48a24.42,24.42,0,0,0-15.18,5.28c0-.08,0-.16,0-.24a26.13,26.13,0,0,0-52.26,0v.24A24.51,24.51,0,1,0,201,338.51c.32,0,.63,0,1,0s.63,0,.95,0" transform="translate(-25 -32.35)"/><circle class="cls-5" cx="242.29" cy="329.77" r="24.34" transform="translate(-131.46 83.35) rotate(-22.15)"/><path class="cls-4" d="M252.66,338.83l-9-9.06,9-9a.94.94,0,0,0-1.32-1.33l-9.05,9.06-9.06-9.06a.94.94,0,1,0-1.32,1.33l9.05,9-9.05,9.06a.92.92,0,0,0,0,1.32.94.94,0,0,0,1.32,0l9.06-9,9.05,9a.94.94,0,0,0,1.32,0A.92.92,0,0,0,252.66,338.83Z" transform="translate(-25 -32.35)"/><rect class="cls-11" x="110.79" y="343.35" width="16.33" height="110.25" transform="translate(-304.52 485.08) rotate(-90)"/><rect class="cls-4" x="91.18" y="368.76" width="12.91" height="59.44" transform="translate(-325.85 463.76) rotate(-90)"/><rect class="cls-11" x="64.53" y="397.81" width="11.27" height="1.33" transform="translate(-353.31 436.3) rotate(-90)"/><rect class="cls-11" x="118.52" y="397.81" width="11.27" height="1.33" transform="translate(-299.32 490.29) rotate(-90)"/><path class="cls-2" d="M153.44,392.58a5.9,5.9,0,1,1-5.9,5.9A5.9,5.9,0,0,1,153.44,392.58Z" transform="translate(-25 -32.35)"/><path class="cls-13" d="M153.44,393.48a5,5,0,1,1-5,5A5,5,0,0,1,153.44,393.48Z" transform="translate(-25 -32.35)"/><line class="cls-3" x1="147.27" y1="372.87" x2="147.27" y2="370.14"/><line class="cls-3" x1="145.22" y1="372.87" x2="145.22" y2="371.29"/><rect class="cls-8" x="110.79" y="359.69" width="16.33" height="110.25" transform="translate(-320.86 501.42) rotate(-90)"/><rect class="cls-4" x="91.18" y="385.1" width="12.91" height="59.44" transform="translate(-342.18 480.09) rotate(-90)"/><rect class="cls-13" x="64.53" y="414.15" width="11.27" height="1.33" transform="translate(-369.65 452.63) rotate(-90)"/><rect class="cls-13" x="118.52" y="414.15" width="11.27" height="1.33" transform="translate(-315.65 506.62) rotate(-90)"/><path class="cls-11" d="M153.44,408.92a5.9,5.9,0,1,1-5.9,5.89A5.9,5.9,0,0,1,153.44,408.92Z" transform="translate(-25 -32.35)"/><path class="cls-13" d="M153.44,409.81a5,5,0,1,1-5,5A5,5,0,0,1,153.44,409.81Z" transform="translate(-25 -32.35)"/><line class="cls-3" x1="145.45" y1="378.3" x2="145.45" y2="379.68"/><line class="cls-3" x1="147.49" y1="382.4" x2="147.49" y2="378.76"/><line class="cls-14" x1="8.87" y1="390.66" x2="425.7" y2="390.66"/><path class="cls-9" d="M425.25,182.6a13,13,0,0,1-5.22-2.51l.49-.62a12.24,12.24,0,0,0,4.91,2.36Zm5.8,0-.18-.77a12.35,12.35,0,0,0,4.9-2.37l.49.62A13.23,13.23,0,0,1,431.05,182.6Zm-14.64-7a13,13,0,0,1-1.3-5.64h.79a12.3,12.3,0,0,0,1.22,5.31Zm23.46,0-.71-.34a12,12,0,0,0,1.21-5.31l.57,0,.22,0A12.84,12.84,0,0,1,439.87,175.55ZM417.1,164.61l-.71-.34a13,13,0,0,1,3.6-4.53l.49.61A12.5,12.5,0,0,0,417.1,164.61Zm22-.06a12.21,12.21,0,0,0-3.41-4.24l.49-.62a13.12,13.12,0,0,1,3.63,4.51ZM425.38,158l-.18-.77a13.1,13.1,0,0,1,2.93-.33h0a13.12,13.12,0,0,1,2.86.31l-.18.77a12,12,0,0,0-2.68-.3h0A12.09,12.09,0,0,0,425.38,158Z" transform="translate(-25 -32.35)"/><path class="cls-9" d="M49.86,201h-.23v-.79h.22a24.15,24.15,0,0,0,5.17-.56l.17.77A24.47,24.47,0,0,1,49.86,201Zm-5.79-.68a24.26,24.26,0,0,1-5.27-1.91l.35-.7a24.48,24.48,0,0,0,5.1,1.84Zm16.43-1.71-.34-.71a24.43,24.43,0,0,0,4.61-2.86l.49.62A24.86,24.86,0,0,1,60.5,198.65Zm-26.4-3.24a24.72,24.72,0,0,1-3.9-4l.62-.48a24.4,24.4,0,0,0,3.78,3.89Zm35.14-3.65-.62-.5a23.82,23.82,0,0,0,2.91-4.58l.71.35A25.37,25.37,0,0,1,69.24,191.76Zm-42-5.15a25.54,25.54,0,0,1-1.76-5.32l.78-.16a24.11,24.11,0,0,0,1.7,5.15Zm46.82-4.87-.77-.18a24.18,24.18,0,0,0,.6-5.38h.79A25.27,25.27,0,0,1,74.1,181.74Zm-48.31-6H25a24.55,24.55,0,0,1,.73-5.55l.76.19A24.17,24.17,0,0,0,25.79,175.73Zm47.72-4.08a24,24,0,0,0-1.61-5.17l.72-.32a23.87,23.87,0,0,1,1.66,5.35Zm-45.12-6.38-.7-.35a24.57,24.57,0,0,1,3.08-4.68l.61.51A24.25,24.25,0,0,0,28.39,165.27Zm40.78-3.48a24.36,24.36,0,0,0-3.71-3.95l.51-.6a25.1,25.1,0,0,1,3.83,4.08ZM35.3,157l-.48-.63a25.13,25.13,0,0,1,4.81-2.86l.33.72A23.58,23.58,0,0,0,35.3,157ZM61,154.81a24.15,24.15,0,0,0-5.07-1.95l.2-.76a24.58,24.58,0,0,1,5.23,2Zm-15.84-2.24-.15-.78a24.85,24.85,0,0,1,4.88-.48h.7l0,.79c-.22,0-.46,0-.67,0A24.16,24.16,0,0,0,45.12,152.57Z" transform="translate(-25 -32.35)"/><circle class="cls-9" cx="48.14" cy="157.64" r="7.5"/><path class="cls-9" d="M342.26,58.09a5.53,5.53,0,1,1-5.53-5.52A5.53,5.53,0,0,1,342.26,58.09Z" transform="translate(-25 -32.35)"/><path class="cls-9" d="M423,160.4a3.95,3.95,0,1,1-3.95-4A4,4,0,0,1,423,160.4Z" transform="translate(-25 -32.35)"/><circle class="cls-9" cx="126.56" cy="97.11" r="5.92"/><path class="cls-9" d="M162.22,147.62a9.32,9.32,0,0,1-1.4-.1l.1-.78a10,10,0,0,0,5.2-.71l.31.72A10.65,10.65,0,0,1,162.22,147.62Zm-6.62-2.31a10.7,10.7,0,0,1-3.35-4.57l.74-.28a9.81,9.81,0,0,0,3.1,4.23Zm15.25-2.1-.64-.47a9.83,9.83,0,0,0,1.84-4.91l.78.07A10.58,10.58,0,0,1,170.85,143.21ZM152.35,137h-.79a10.56,10.56,0,0,1,1.51-5.46l.67.4A9.88,9.88,0,0,0,152.35,137Zm18.75-4.29a9.79,9.79,0,0,0-3.46-3.95l.44-.66a10.74,10.74,0,0,1,3.73,4.26Zm-13.56-4.4-.38-.69a10.77,10.77,0,0,1,5.53-1.27l0,.79A10,10,0,0,0,157.54,128.27Z" transform="translate(-25 -32.35)"/><path class="cls-9" d="M348.85,79.23a13.76,13.76,0,0,1-5.43-1.56l.37-.7a12.87,12.87,0,0,0,5.12,1.47Zm5.6-.73-.27-.74A13,13,0,0,0,358.74,75l.54.58A13.82,13.82,0,0,1,354.45,78.5Zm-15.37-4.44a13.6,13.6,0,0,1-2.54-5l.76-.2a12.78,12.78,0,0,0,2.4,4.75ZM362.55,71l-.72-.31a12.93,12.93,0,0,0,1.08-5.21h.79A13.55,13.55,0,0,1,362.55,71Zm.29-6.94A12.9,12.9,0,0,0,361.19,59l.68-.4A13.49,13.49,0,0,1,363.62,64ZM337,63.49l-.78-.11a13.65,13.65,0,0,1,2-5.29l.66.42A12.91,12.91,0,0,0,337,63.49ZM357.65,55a12.83,12.83,0,0,0-4.83-2.23L353,52a13.46,13.46,0,0,1,5.12,2.37Zm-15.07-.32-.45-.65a13.67,13.67,0,0,1,5.22-2.15l.15.77A12.82,12.82,0,0,0,342.58,54.68Z" transform="translate(-25 -32.35)"/></g></svg>